# xmcd
#
# Track frame offsets: 
#        150
#        12025
#        24034
#        36995
#        51781
#        58360
#        69357
#        84690
#        97637
#        109678
#        121184
#        138269
#        143931
#        157625
#        169223
#        183013
#        195823
#        210420
#        226022
#        237850
#        250282
#        256606
#        270967
#        282727
#        290495
#        303716
#        311629
#        324911
#
# Disc length: 4450 seconds
#
# Revision: 0
# Processed by: cddbd v1.4PL0 Copyright (c) Steve Scherf et al.
# Submitted via: ExactAudioCopy v0.90a11
#
DISCID=6b11601c
DTITLE=Wise Guys - Nein, Nein. Nein!
DYEAR=1900
DGENRE=
TTITLE0=Alles im gr¸nen Bereich
TTITLE1=M‰dchen lach doch mal
TTITLE2=Der letzte Martini
TTITLE3=Die Comedian Harmonists
TTITLE4=Tekkno
TTITLE5=Ich bin grumpig
TTITLE6=Oh Scheiﬂe
TTITLE7=Nein, Nein, Nein!
TTITLE8=Wie kann es sein
TTITLE9=Mann und Frau
TTITLE10=Meine heiﬂe Liebe
TTITLE11=Julia
TTITLE12=Haarige Zeiten
TTITLE13=Probier's mal mit 'nem Baﬂ
TTITLE14=Ein Herz und eine Seele
TTITLE15=Flunder gibt es immer wieder
TTITLE16=Goldeneye
TTITLE17=More than words
TTITLE18=Sie ist die beste
TTITLE19=Root Beer Jag
TTITLE20=Viele verachten die edele Musik
TTITLE21=Mach mir den Skywalker
TTITLE22=With a little help from my friends
TTITLE23=Eight days a week
TTITLE24=Sunshine of my life
TTITLE25=Wild world
TTITLE26=Another weekend
TTITLE27=Balu
EXTD=
EXTT0=
EXTT1=
EXTT2=
EXTT3=
EXTT4=
EXTT5=
EXTT6=
EXTT7=
EXTT8=
EXTT9=
EXTT10=
EXTT11=
EXTT12=
EXTT13=
EXTT14=
EXTT15=
EXTT16=
EXTT17=
EXTT18=
EXTT19=
EXTT20=
EXTT21=
EXTT22=
EXTT23=
EXTT24=
EXTT25=
EXTT26=
EXTT27=
PLAYORDER=
